<svg width="300" height="300" viewBox="0 0 300 300" fill="none" xmlns="http://www.w3.org/2000/svg">
<rect width="300" height="300" fill="#847128"/>
<rect x="50" y="50" width="200" height="200" rx="100" fill="#847128"/>
<path d="M150.138 154.207H154.479V154.932H130.685V154.207H135.107C136.671 154.207 137.566 153.984 138.134 153.576C138.701 153.168 139.049 152.538 139.177 151.694C139.306 150.845 139.373 149.057 139.373 146.321L139.382 146.34V106.016H130.69V105.271H131.39C139.206 105.271 143.314 102.388 145.711 101.525V146.326C145.711 149.067 145.777 150.859 145.906 151.703C146.035 152.547 146.383 153.178 146.95 153.586C147.517 153.998 148.584 154.202 150.147 154.202" fill="white"/>
<path d="M154.48 154.932C153.217 154.932 150.496 154.909 149.672 154.311C148.976 153.804 148.542 153.04 148.39 152.04C148.256 151.153 148.19 149.37 148.19 146.577V101.463H149.372V146.572C149.372 149.271 149.433 151.049 149.557 151.864C149.662 152.557 149.924 153.045 150.363 153.363C150.734 153.633 152.803 154.207 154.475 154.207V154.937L154.48 154.932Z" fill="white"/>
<path d="M148.422 128.207V127.468H150.071C155.513 127.468 163.744 127.681 163.744 114.001C163.744 101.99 156.576 102.213 151.83 102.213H148.422V101.463H154.384C171.163 101.463 172.016 112.502 172.016 114.717C172.016 119.193 169.953 122.953 166.207 125.301C161.594 128.207 155.537 128.207 152.626 128.207H148.422Z" fill="white"/>
<path d="M60.5036 176.626H60.2081C60.0747 176.626 59.946 176.626 59.8221 176.617V179.376C59.8221 179.727 59.8221 180.021 59.8078 180.273C59.7983 180.519 59.7792 180.728 59.7554 180.889L61.5234 180.794V181.643H56.8293V181.017C57.1915 181.008 57.4632 180.941 57.6443 180.823C57.8253 180.704 57.954 180.543 58.0303 180.339C58.1065 180.135 58.1446 179.888 58.1446 179.609C58.1446 179.329 58.1494 179.016 58.1494 178.684V170.438C58.1494 170.177 58.1494 169.931 58.1637 169.698C58.1732 169.466 58.1923 169.253 58.2161 169.063L56.8341 169.148V168.299C57.506 168.285 58.2018 168.28 58.9119 168.276C59.6219 168.276 60.3558 168.276 61.1088 168.276C62.9673 168.276 64.3827 168.589 65.3453 169.205C66.3795 169.878 66.8989 170.869 66.8989 172.173C66.8989 172.439 66.8703 172.738 66.8084 173.06C66.7512 173.383 66.6273 173.715 66.4462 174.061C66.2651 174.402 66.0173 174.734 65.7028 175.047C65.3882 175.36 64.9927 175.635 64.5161 175.867C64.0396 176.1 63.4677 176.285 62.8101 176.427C62.1477 176.564 61.3804 176.636 60.5083 176.636L60.5036 176.626ZM59.8221 175.825C60.0604 175.858 60.2653 175.872 60.4464 175.882C60.6227 175.886 60.8324 175.891 61.0707 175.891C61.6139 175.891 62.1238 175.81 62.6099 175.649C63.0912 175.488 63.5154 175.256 63.8728 174.947C64.2302 174.639 64.5161 174.269 64.7258 173.828C64.9355 173.387 65.0403 172.889 65.0403 172.33C65.0403 171.728 64.945 171.216 64.7496 170.798C64.5543 170.376 64.2874 170.035 63.9347 169.769C63.5869 169.509 63.1675 169.314 62.6814 169.196C62.1953 169.077 61.6568 169.02 61.0707 169.02C60.7275 169.02 60.4702 169.077 60.2986 169.181C60.1271 169.29 60.0032 169.442 59.9317 169.641C59.8602 169.841 59.8221 170.078 59.8221 170.353V175.825Z" fill="white"/>
<path d="M75.1195 175.683C74.9051 175.697 74.6906 175.702 74.4762 175.697C74.257 175.697 74.0378 175.683 73.8233 175.664V179.376C73.8233 179.727 73.8233 180.021 73.809 180.273C73.7995 180.519 73.7804 180.728 73.7566 180.889L75.1434 180.813V181.643H70.8306V181.017C71.1927 181.008 71.4644 180.941 71.6455 180.823C71.8266 180.704 71.9552 180.543 72.0315 180.339C72.1077 180.135 72.1459 179.889 72.1459 179.609C72.1459 179.329 72.1506 179.016 72.1506 178.684V170.438C72.1506 170.177 72.1506 169.931 72.1649 169.698C72.1744 169.466 72.1935 169.253 72.2173 169.063L70.8353 169.148V168.3C71.5597 168.285 72.2841 168.276 73.0132 168.271C73.7423 168.266 74.481 168.271 75.2196 168.281C76.1441 168.3 76.9352 168.39 77.5928 168.546C78.2505 168.703 78.789 168.93 79.2131 169.219C79.6325 169.513 79.9422 169.864 80.1376 170.282C80.333 170.699 80.4331 171.168 80.4331 171.695C80.4331 172.069 80.3854 172.449 80.2854 172.837C80.1853 173.226 80.0042 173.591 79.7326 173.942C79.4657 174.288 79.0987 174.601 78.6317 174.872C78.1647 175.147 77.569 175.355 76.8399 175.502C77.0877 175.683 77.3164 175.915 77.5118 176.19C77.712 176.47 77.9312 176.797 78.1695 177.171L79.48 179.215C79.642 179.471 79.7993 179.708 79.947 179.926C80.0995 180.149 80.2615 180.339 80.4379 180.5C80.6142 180.661 80.8143 180.789 81.0383 180.884C81.2575 180.979 81.5196 181.022 81.8199 181.022V181.648H79.4037C79.2179 181.487 79.0463 181.325 78.8986 181.164C78.7509 181.003 78.6079 180.837 78.4745 180.661C78.341 180.486 78.2124 180.311 78.0885 180.126C77.9646 179.945 77.8311 179.746 77.6929 179.533L76.411 177.494C76.3252 177.356 76.2347 177.209 76.1394 177.053C76.044 176.896 75.944 176.735 75.8391 176.574C75.7343 176.413 75.6199 176.256 75.5008 176.105C75.3816 175.953 75.2577 175.815 75.1243 175.692L75.1195 175.683ZM73.8186 174.938C74.0187 174.952 74.2093 174.962 74.3952 174.971C74.581 174.981 74.786 174.981 75.0099 174.971C75.5341 174.952 76.0107 174.886 76.4444 174.772C76.878 174.658 77.2497 174.478 77.569 174.236C77.8835 173.994 78.1266 173.681 78.3029 173.302C78.4792 172.918 78.565 172.453 78.565 171.899C78.565 170.941 78.2886 170.22 77.7358 169.736C77.183 169.248 76.3204 169.006 75.1386 169.006C74.7764 169.006 74.5048 169.063 74.3237 169.167C74.1426 169.276 74.0139 169.428 73.9377 169.627C73.8614 169.826 73.8233 170.063 73.8186 170.343C73.8186 170.623 73.8186 170.931 73.8186 171.273V174.938Z" fill="white"/>
<path d="M88.0249 170.429C88.0249 170.168 88.0249 169.921 88.0392 169.689C88.0487 169.456 88.063 169.243 88.0916 169.049L86.7048 169.134V168.295H91.0176V168.916C90.6555 168.93 90.3838 168.996 90.2027 169.115C90.0216 169.238 89.893 169.4 89.8215 169.603C89.7452 169.807 89.7071 170.049 89.7023 170.329C89.7023 170.609 89.7023 170.922 89.7023 171.263V179.372C89.7023 179.718 89.6976 180.017 89.688 180.268C89.6785 180.514 89.6595 180.723 89.6356 180.884L91.0176 180.808V181.638H86.7048V181.012C87.067 181.003 87.3386 180.936 87.5197 180.818C87.7008 180.699 87.8295 180.538 87.901 180.334C87.9772 180.13 88.0154 179.884 88.0154 179.604C88.0154 179.319 88.0201 179.011 88.0201 178.675V170.424L88.0249 170.429Z" fill="white"/>
<path d="M95.8162 174.967C95.8162 174.431 95.8733 173.89 95.9925 173.335C96.1116 172.785 96.2927 172.249 96.5358 171.728C96.7788 171.211 97.0838 170.723 97.4507 170.272C97.8177 169.822 98.2466 169.423 98.7422 169.082C99.2378 168.741 99.7954 168.47 100.415 168.276C101.039 168.081 101.725 167.982 102.483 167.982C103.241 167.982 103.97 168.081 104.609 168.281C105.247 168.48 105.819 168.745 106.324 169.087C106.829 169.423 107.268 169.822 107.639 170.277C108.011 170.732 108.321 171.22 108.564 171.737C108.812 172.254 108.993 172.79 109.117 173.345C109.241 173.9 109.298 174.435 109.298 174.967C109.298 175.498 109.236 176.033 109.117 176.583C108.998 177.134 108.817 177.665 108.573 178.186C108.335 178.703 108.03 179.191 107.663 179.647C107.296 180.102 106.863 180.5 106.367 180.842C105.871 181.183 105.314 181.453 104.694 181.652C104.075 181.852 103.389 181.951 102.631 181.951C101.821 181.951 101.087 181.856 100.439 181.662C99.7858 181.468 99.2092 181.207 98.7041 180.875C98.1989 180.543 97.7653 180.154 97.3983 179.704C97.0361 179.253 96.7359 178.769 96.5024 178.257C96.2689 177.745 96.0973 177.205 95.983 176.645C95.8686 176.081 95.8162 175.526 95.8162 174.976V174.967ZM97.6985 174.616C97.6985 175.09 97.7414 175.578 97.832 176.081C97.9178 176.588 98.0512 177.081 98.2275 177.565C98.4038 178.049 98.6278 178.513 98.8995 178.95C99.1711 179.391 99.4904 179.77 99.8621 180.097C100.234 180.424 100.653 180.68 101.115 180.875C101.578 181.069 102.097 181.164 102.674 181.164C103.198 181.164 103.679 181.083 104.113 180.927C104.551 180.771 104.942 180.552 105.29 180.273C105.638 179.998 105.943 179.67 106.205 179.296C106.467 178.921 106.686 178.518 106.863 178.087C107.039 177.655 107.168 177.195 107.258 176.702C107.349 176.214 107.392 175.754 107.392 175.322C107.392 174.862 107.339 174.355 107.239 173.795C107.139 173.236 106.991 172.714 106.801 172.226C106.605 171.737 106.372 171.282 106.091 170.855C105.809 170.429 105.485 170.059 105.118 169.746C104.752 169.433 104.342 169.186 103.889 169.006C103.436 168.826 102.945 168.736 102.416 168.736C101.63 168.736 100.939 168.911 100.348 169.257C99.7573 169.604 99.2616 170.059 98.8709 170.618C98.4801 171.178 98.1846 171.808 97.9892 172.506C97.7939 173.203 97.6938 173.909 97.6938 174.616H97.6985Z" fill="white"/>
<path d="M117.913 175.683C117.699 175.697 117.484 175.702 117.27 175.697C117.051 175.697 116.832 175.683 116.612 175.664V179.376C116.612 179.727 116.612 180.021 116.598 180.273C116.589 180.519 116.569 180.728 116.546 180.889L117.932 180.813V181.643H113.62V181.017C113.982 181.008 114.253 180.941 114.435 180.823C114.616 180.704 114.744 180.543 114.816 180.339C114.892 180.135 114.93 179.889 114.935 179.609C114.935 179.329 114.935 179.016 114.935 178.684V170.438C114.935 170.177 114.935 169.931 114.949 169.698C114.959 169.466 114.978 169.253 115.002 169.063L113.62 169.148V168.3C114.344 168.285 115.068 168.276 115.797 168.271C116.527 168.266 117.26 168.271 118.004 168.281C118.928 168.3 119.715 168.39 120.377 168.546C121.035 168.703 121.573 168.93 121.997 169.219C122.417 169.513 122.727 169.864 122.922 170.282C123.117 170.699 123.217 171.168 123.217 171.695C123.217 172.069 123.17 172.449 123.065 172.837C122.965 173.226 122.784 173.591 122.512 173.942C122.245 174.288 121.878 174.601 121.411 174.872C120.949 175.147 120.349 175.355 119.619 175.502C119.867 175.683 120.096 175.915 120.291 176.19C120.492 176.47 120.711 176.797 120.949 177.171L122.26 179.215C122.422 179.471 122.579 179.708 122.727 179.926C122.874 180.149 123.041 180.339 123.217 180.5C123.394 180.661 123.594 180.789 123.818 180.884C124.037 180.979 124.299 181.022 124.599 181.022V181.648H122.183C121.997 181.487 121.831 181.325 121.678 181.164C121.526 181.003 121.387 180.837 121.254 180.661C121.121 180.486 120.992 180.311 120.868 180.126C120.744 179.945 120.611 179.746 120.472 179.533L119.191 177.494C119.105 177.356 119.014 177.209 118.919 177.053C118.824 176.896 118.724 176.735 118.619 176.574C118.514 176.413 118.399 176.256 118.28 176.105C118.161 175.953 118.037 175.815 117.909 175.692L117.913 175.683ZM116.612 174.938C116.813 174.952 117.003 174.962 117.189 174.971C117.375 174.981 117.58 174.981 117.804 174.971C118.328 174.952 118.805 174.886 119.238 174.772C119.672 174.658 120.044 174.478 120.358 174.236C120.673 173.994 120.92 173.681 121.092 173.302C121.268 172.918 121.354 172.453 121.354 171.899C121.354 170.941 121.078 170.22 120.525 169.736C119.972 169.248 119.11 169.006 117.928 169.006C117.565 169.006 117.294 169.063 117.113 169.167C116.932 169.276 116.803 169.428 116.732 169.627C116.655 169.826 116.617 170.063 116.612 170.343C116.612 170.623 116.612 170.931 116.612 171.273V174.938Z" fill="white"/>
<path d="M130.819 170.429C130.819 170.168 130.819 169.921 130.833 169.689C130.843 169.456 130.862 169.243 130.886 169.049L129.499 169.134V168.295H133.812V168.916C133.45 168.93 133.178 168.996 132.997 169.115C132.816 169.238 132.687 169.4 132.611 169.603C132.535 169.807 132.497 170.049 132.497 170.329C132.497 170.609 132.497 170.922 132.497 171.263V179.372C132.497 179.718 132.497 180.017 132.482 180.268C132.473 180.514 132.454 180.723 132.43 180.884L133.817 180.808V181.638H129.504V181.012C129.866 181.003 130.138 180.936 130.319 180.818C130.5 180.699 130.628 180.538 130.7 180.334C130.776 180.13 130.814 179.884 130.819 179.604C130.819 179.319 130.819 179.011 130.819 178.675V170.424V170.429Z" fill="white"/>
<path d="M149.799 172.325C149.785 171.761 149.742 171.268 149.666 170.851C149.59 170.433 149.461 170.082 149.275 169.807C149.089 169.532 148.837 169.324 148.517 169.191C148.198 169.053 147.793 168.987 147.302 168.987L145.682 168.997L145.653 179.386C145.653 180.069 145.634 180.571 145.596 180.894L147.188 180.818V181.648H142.689V181.022C143.047 181.012 143.313 180.941 143.494 180.818C143.676 180.695 143.804 180.529 143.876 180.32C143.952 180.111 143.99 179.87 143.99 179.59V178.684L144.019 169.015L142.036 169.025C141.631 169.025 141.288 169.091 141.012 169.224C140.735 169.357 140.507 169.561 140.335 169.836C140.159 170.111 140.035 170.452 139.954 170.865C139.877 171.277 139.835 171.766 139.835 172.33H139.125L139.239 168.299H150.409L150.524 172.33H149.804L149.799 172.325Z" fill="white"/>
<path d="M160.246 176.498L156.924 171.254C156.595 170.746 156.352 170.319 156.195 169.973C156.038 169.627 155.938 169.333 155.885 169.091L154.698 169.139V168.29H159.636V168.921C159.192 168.921 158.854 168.973 158.625 169.072C158.397 169.177 158.244 169.319 158.182 169.499C158.115 169.684 158.125 169.902 158.211 170.154C158.296 170.41 158.435 170.685 158.625 170.993C158.864 171.372 159.088 171.728 159.297 172.069C159.512 172.406 159.721 172.743 159.936 173.07C160.145 173.397 160.369 173.734 160.593 174.075C160.822 174.416 161.07 174.777 161.346 175.156H161.385C162.814 172.449 163.662 170.851 163.939 170.353C164.21 169.855 164.392 169.542 164.482 169.414C164.568 169.286 164.658 169.167 164.754 169.068L163.238 169.134V168.285H167.151V168.916C166.832 168.935 166.55 168.997 166.298 169.101C166.05 169.205 165.812 169.362 165.597 169.561C165.378 169.76 165.168 170.016 164.963 170.315C164.759 170.618 163.743 172.482 161.909 175.92C161.904 176.536 161.899 177.262 161.894 178.106C161.894 178.95 161.894 179.367 161.899 179.367C161.899 180.05 161.88 180.552 161.842 180.875L163.434 180.799V181.629H158.935V181.003C159.292 180.993 159.559 180.922 159.74 180.799C159.922 180.676 160.05 180.51 160.122 180.301C160.198 180.092 160.236 179.851 160.236 179.571V178.665L160.246 176.484V176.498Z" fill="white"/>
<path d="M186.237 176.626H185.942C185.808 176.626 185.679 176.626 185.551 176.617V179.376C185.551 179.727 185.551 180.021 185.536 180.273C185.527 180.519 185.508 180.728 185.484 180.889L187.252 180.794V181.643H182.553V181.017C182.915 181.008 183.187 180.941 183.368 180.823C183.549 180.704 183.678 180.543 183.749 180.339C183.826 180.135 183.864 179.888 183.868 179.609C183.868 179.329 183.873 179.016 183.873 178.684V170.438C183.873 170.177 183.873 169.931 183.888 169.698C183.897 169.466 183.916 169.253 183.94 169.063L182.553 169.148V168.299C183.225 168.285 183.921 168.28 184.631 168.276C185.341 168.276 186.075 168.276 186.828 168.276C188.686 168.276 190.097 168.589 191.064 169.205C192.099 169.883 192.618 170.869 192.618 172.173C192.618 172.439 192.589 172.733 192.527 173.06C192.47 173.383 192.346 173.715 192.165 174.061C191.984 174.407 191.736 174.734 191.422 175.047C191.107 175.36 190.712 175.635 190.235 175.867C189.759 176.1 189.187 176.285 188.529 176.427C187.867 176.564 187.1 176.636 186.227 176.636L186.237 176.626ZM185.555 175.825C185.794 175.858 185.999 175.872 186.18 175.882C186.356 175.886 186.566 175.891 186.804 175.891C187.347 175.891 187.857 175.81 188.343 175.649C188.825 175.488 189.249 175.256 189.606 174.947C189.964 174.639 190.25 174.269 190.459 173.828C190.669 173.387 190.774 172.889 190.774 172.33C190.774 171.728 190.678 171.216 190.483 170.798C190.288 170.376 190.016 170.035 189.668 169.769C189.32 169.509 188.901 169.314 188.415 169.196C187.929 169.077 187.39 169.02 186.804 169.02C186.461 169.02 186.204 169.072 186.032 169.181C185.86 169.29 185.737 169.442 185.665 169.641C185.594 169.841 185.555 170.078 185.555 170.353V175.825Z" fill="white"/>
<path d="M196.979 179.571C196.926 179.723 196.883 179.855 196.845 179.974C196.807 180.092 196.769 180.201 196.731 180.301C196.693 180.401 196.654 180.495 196.616 180.59C196.578 180.685 196.54 180.785 196.497 180.889L197.994 180.813V181.643H194.41V181.017C194.696 181.017 194.929 180.96 195.11 180.846C195.292 180.733 195.444 180.567 195.568 180.358C195.692 180.145 195.806 179.898 195.911 179.604C196.016 179.315 196.13 178.992 196.264 178.637L200.21 167.934H200.667L204.942 178.793C204.999 178.926 205.056 179.082 205.113 179.263C205.17 179.448 205.228 179.632 205.28 179.827C205.332 180.021 205.375 180.206 205.399 180.396C205.428 180.581 205.437 180.747 205.433 180.889L206.743 180.813V181.643H202.354V181.017C202.707 181.012 202.969 180.946 203.14 180.823C203.307 180.699 203.417 180.548 203.46 180.367C203.503 180.187 203.503 179.993 203.46 179.789C203.417 179.585 203.36 179.391 203.293 179.21L202.621 177.418L197.636 177.532C197.498 177.925 197.379 178.286 197.269 178.608C197.164 178.935 197.064 179.258 196.969 179.576L196.979 179.571ZM199.299 172.871C199.004 173.691 198.747 174.412 198.527 175.033C198.308 175.654 198.108 176.214 197.932 176.702H202.368L201.001 173.051L200.138 170.704H200.1L199.295 172.861L199.299 172.871Z" fill="white"/>
<path d="M211.132 181.79H210.141L210.026 177.731H210.765C210.803 178.295 210.922 178.788 211.132 179.215C211.337 179.642 211.609 179.993 211.942 180.282C212.276 180.567 212.666 180.785 213.105 180.927C213.548 181.074 214.02 181.145 214.525 181.145C214.901 181.145 215.254 181.093 215.588 180.993C215.921 180.894 216.217 180.737 216.469 180.538C216.722 180.339 216.922 180.088 217.07 179.789C217.218 179.49 217.289 179.149 217.289 178.765C217.289 178.3 217.184 177.902 216.979 177.565C216.774 177.228 216.503 176.934 216.16 176.678C215.821 176.422 215.43 176.19 215.002 175.981C214.568 175.773 214.125 175.564 213.677 175.355C213.229 175.147 212.786 174.929 212.352 174.696C211.918 174.464 211.532 174.194 211.194 173.885C210.856 173.577 210.579 173.222 210.374 172.809C210.169 172.396 210.064 171.913 210.064 171.349C210.064 171.13 210.088 170.898 210.141 170.651C210.188 170.405 210.274 170.154 210.389 169.907C210.503 169.66 210.655 169.419 210.846 169.186C211.037 168.954 211.275 168.75 211.561 168.57C211.847 168.39 212.19 168.252 212.581 168.148C212.971 168.043 213.429 167.991 213.948 167.991C214.196 167.991 214.463 168.006 214.744 168.039C215.025 168.072 215.311 168.124 215.602 168.195C215.893 168.271 216.179 168.371 216.469 168.499C216.755 168.627 217.032 168.788 217.294 168.978L217.218 168.157H218.19V172.34H217.499C217.47 171.88 217.38 171.434 217.232 170.998C217.084 170.561 216.87 170.182 216.593 169.85C216.312 169.518 215.964 169.248 215.554 169.049C215.145 168.845 214.658 168.745 214.096 168.745C213.696 168.745 213.343 168.807 213.038 168.925C212.733 169.049 212.476 169.21 212.271 169.414C212.066 169.618 211.909 169.855 211.804 170.125C211.699 170.395 211.647 170.68 211.647 170.979C211.647 171.415 211.751 171.789 211.961 172.112C212.171 172.434 212.447 172.719 212.79 172.965C213.133 173.212 213.524 173.44 213.958 173.648C214.396 173.852 214.84 174.061 215.297 174.265C215.755 174.473 216.198 174.696 216.636 174.933C217.075 175.17 217.461 175.45 217.804 175.763C218.147 176.076 218.423 176.441 218.633 176.859C218.843 177.276 218.947 177.764 218.947 178.328C218.947 178.855 218.847 179.343 218.647 179.784C218.447 180.23 218.156 180.609 217.775 180.927C217.394 181.245 216.927 181.496 216.369 181.676C215.812 181.856 215.178 181.946 214.463 181.946C214.177 181.946 213.882 181.928 213.577 181.885C213.276 181.842 212.976 181.785 212.681 181.705C212.385 181.624 212.099 181.52 211.823 181.396C211.547 181.273 211.289 181.131 211.051 180.97L211.146 181.79H211.132Z" fill="white"/>
<path d="M224.385 181.79H223.394L223.279 177.731H224.018C224.056 178.295 224.175 178.788 224.385 179.215C224.59 179.642 224.861 179.993 225.195 180.282C225.529 180.567 225.915 180.785 226.358 180.927C226.801 181.074 227.273 181.145 227.778 181.145C228.154 181.145 228.507 181.093 228.841 180.993C229.174 180.894 229.47 180.737 229.718 180.538C229.97 180.339 230.17 180.088 230.318 179.789C230.466 179.49 230.537 179.149 230.537 178.765C230.537 178.3 230.432 177.902 230.227 177.565C230.023 177.228 229.751 176.934 229.408 176.678C229.069 176.422 228.679 176.19 228.25 175.981C227.816 175.773 227.373 175.564 226.925 175.355C226.477 175.147 226.034 174.929 225.6 174.696C225.166 174.464 224.78 174.194 224.442 173.885C224.104 173.577 223.827 173.222 223.622 172.809C223.417 172.396 223.313 171.913 223.313 171.349C223.313 171.13 223.336 170.898 223.389 170.651C223.437 170.405 223.522 170.154 223.637 169.907C223.751 169.66 223.904 169.419 224.094 169.186C224.285 168.954 224.523 168.75 224.809 168.57C225.095 168.39 225.433 168.252 225.829 168.148C226.22 168.043 226.677 167.991 227.197 167.991C227.444 167.991 227.711 168.006 227.992 168.039C228.274 168.072 228.56 168.124 228.85 168.195C229.141 168.271 229.427 168.371 229.718 168.499C230.003 168.627 230.28 168.788 230.542 168.978L230.466 168.157H231.438V172.34H230.747C230.718 171.88 230.628 171.434 230.48 170.998C230.332 170.566 230.123 170.182 229.841 169.85C229.56 169.518 229.217 169.248 228.803 169.049C228.393 168.845 227.907 168.745 227.344 168.745C226.944 168.745 226.591 168.807 226.286 168.925C225.981 169.049 225.724 169.21 225.519 169.414C225.314 169.618 225.157 169.855 225.052 170.125C224.947 170.395 224.895 170.68 224.895 170.979C224.895 171.415 225 171.789 225.209 172.112C225.419 172.434 225.695 172.719 226.039 172.965C226.382 173.212 226.772 173.44 227.206 173.648C227.645 173.852 228.088 174.061 228.545 174.265C229.003 174.473 229.446 174.696 229.884 174.933C230.323 175.17 230.709 175.45 231.052 175.763C231.395 176.076 231.671 176.441 231.881 176.859C232.091 177.276 232.196 177.764 232.196 178.328C232.196 178.855 232.096 179.343 231.895 179.784C231.695 180.23 231.405 180.609 231.023 180.927C230.642 181.245 230.175 181.496 229.613 181.676C229.055 181.856 228.421 181.946 227.706 181.946C227.421 181.946 227.125 181.928 226.825 181.885C226.525 181.842 226.224 181.785 225.929 181.705C225.633 181.624 225.348 181.52 225.066 181.396C224.79 181.273 224.533 181.131 224.294 180.97L224.39 181.79H224.385Z" fill="white"/>
<path d="M239.935 168.167L239.968 169.456H239.591C239.591 169.153 239.529 168.925 239.406 168.774C239.282 168.622 239.11 168.546 238.886 168.546H238.614V171.216C238.614 171.268 238.614 171.32 238.614 171.367C238.614 171.42 238.614 171.467 238.614 171.51C238.614 171.557 238.614 171.595 238.61 171.633C238.61 171.671 238.605 171.699 238.6 171.723L239.058 171.704V172.145H237.39V171.77C237.452 171.77 237.509 171.761 237.561 171.751C237.614 171.742 237.657 171.723 237.69 171.69C237.723 171.657 237.752 171.609 237.771 171.548C237.79 171.481 237.8 171.391 237.8 171.277V168.551H237.533C237.313 168.551 237.142 168.622 237.018 168.769C236.894 168.916 236.827 169.143 236.827 169.452H236.451L236.484 168.162H239.949L239.935 168.167Z" fill="white"/>
<path d="M244.591 169.091L243.418 172.207H242.885L242.117 170.334C242.094 170.282 242.065 170.21 242.032 170.12C241.998 170.03 241.96 169.931 241.922 169.817C241.884 169.703 241.846 169.58 241.812 169.452C241.774 169.319 241.741 169.186 241.712 169.049H241.708C241.712 169.262 241.717 169.461 241.722 169.651C241.722 169.841 241.722 170.016 241.722 170.191L241.712 171.22C241.712 171.273 241.712 171.325 241.712 171.372C241.712 171.424 241.712 171.472 241.708 171.514C241.708 171.562 241.703 171.6 241.698 171.638C241.698 171.676 241.693 171.704 241.689 171.728L242.122 171.709V172.15H240.816V171.775C240.878 171.775 240.936 171.766 240.988 171.756C241.04 171.747 241.079 171.728 241.117 171.695C241.15 171.661 241.179 171.614 241.198 171.552C241.217 171.486 241.226 171.396 241.226 171.282L241.26 169.101C241.26 169.049 241.26 168.997 241.26 168.949C241.26 168.897 241.26 168.85 241.264 168.807C241.269 168.764 241.264 168.721 241.269 168.684C241.269 168.646 241.274 168.617 241.279 168.593L240.845 168.612V168.171H242.108L242.975 170.376C242.999 170.443 243.028 170.519 243.061 170.599C243.09 170.685 243.123 170.765 243.152 170.851C243.18 170.936 243.209 171.012 243.233 171.088C243.256 171.164 243.275 171.225 243.294 171.273H243.299C243.347 171.14 243.395 171.012 243.433 170.888C243.471 170.765 243.518 170.642 243.566 170.519L244.448 168.167H245.768V168.541C245.701 168.541 245.644 168.551 245.591 168.56C245.539 168.57 245.496 168.589 245.458 168.622C245.42 168.655 245.396 168.703 245.377 168.764C245.358 168.831 245.353 168.921 245.358 169.034L245.444 171.216C245.444 171.268 245.444 171.32 245.444 171.367C245.444 171.42 245.444 171.467 245.444 171.51C245.444 171.557 245.444 171.595 245.434 171.633C245.434 171.671 245.425 171.699 245.425 171.723L245.854 171.704V172.145H244.267V171.77C244.329 171.77 244.386 171.761 244.438 171.752C244.491 171.742 244.534 171.723 244.572 171.69C244.61 171.657 244.634 171.609 244.653 171.548C244.672 171.481 244.676 171.391 244.672 171.277L244.624 170.073C244.624 170.04 244.624 169.988 244.615 169.912C244.605 169.836 244.605 169.755 244.6 169.66C244.6 169.566 244.591 169.471 244.586 169.371C244.581 169.272 244.576 169.177 244.572 169.091H244.567H244.591Z" fill="white"/>
</svg>
