<svg width="137" height="59" viewBox="0 0 137 59" fill="none" xmlns="http://www.w3.org/2000/svg">
<path d="M67.6343 38.9968H70.7579V39.5199H53.6383V38.9968H56.8202C57.9448 38.9968 58.5894 38.8361 58.9974 38.5421C59.4054 38.2481 59.6557 37.7934 59.7483 37.1849C59.8409 36.5729 59.8889 35.284 59.8889 33.3114L59.8957 33.3251V4.25197H53.6417V3.71522H54.1458C59.7689 3.71522 62.7244 1.63662 64.449 1.0144V33.3148C64.449 35.2909 64.4971 36.5832 64.5896 37.1917C64.6822 37.8002 64.9325 38.2549 65.3405 38.5489C65.7485 38.8464 66.5166 38.9934 67.6412 38.9934" fill="#917A2C"/>
<path d="M70.7578 39.5199C69.8492 39.5199 67.8914 39.5028 67.2983 39.072C66.7977 38.7062 66.4857 38.1558 66.3759 37.4344C66.2799 36.7951 66.2319 35.5097 66.2319 33.496V0.969971H67.0823V33.4926C67.0823 35.4379 67.1268 36.7199 67.216 37.3079C67.2914 37.8071 67.48 38.1592 67.7954 38.3883C68.0629 38.5831 69.5509 38.9968 70.7544 38.9968V39.5233L70.7578 39.5199Z" fill="#917A2C"/>
<path d="M66.3999 20.2518V19.7184H67.5862C71.5018 19.7184 77.4232 19.8723 77.4232 10.0092C77.4232 1.34945 72.2664 1.51013 68.8514 1.51013H66.3999V0.969971H70.6892C82.7617 0.969971 83.3755 8.92884 83.3755 10.5254C83.3755 13.7527 81.8908 16.4638 79.1959 18.1561C75.8769 20.2518 71.519 20.2518 69.424 20.2518H66.3999Z" fill="#917A2C"/>
<path d="M3.14354 55.1607H2.93096C2.83496 55.1607 2.74238 55.1607 2.65323 55.1539V57.1436C2.65323 57.3966 2.65323 57.6085 2.64295 57.7897C2.63609 57.9675 2.62238 58.1179 2.60523 58.2342L3.87729 58.1658V58.7777H0.5V58.3265C0.760582 58.3196 0.956019 58.2718 1.08631 58.1863C1.2166 58.1008 1.30918 57.9846 1.36404 57.8376C1.4189 57.6906 1.44633 57.5128 1.44633 57.3111C1.44633 57.1094 1.44975 56.8837 1.44975 56.6444V50.6992C1.44975 50.5112 1.44975 50.3334 1.46004 50.1659C1.4669 49.9984 1.48061 49.8445 1.49776 49.7078L0.503429 49.7693V49.1574C0.986878 49.1471 1.48747 49.1437 1.99835 49.1403C2.50923 49.1403 3.03725 49.1403 3.57899 49.1403C4.91619 49.1403 5.93452 49.3659 6.62712 49.8103C7.37115 50.2958 7.74488 51.0103 7.74488 51.9505C7.74488 52.1419 7.72431 52.3573 7.67973 52.5898C7.63859 52.8223 7.54944 53.0616 7.41915 53.3111C7.28886 53.5573 7.11057 53.7966 6.88427 54.0222C6.65798 54.2479 6.37339 54.4462 6.03052 54.6137C5.68765 54.7812 5.2762 54.9145 4.80304 55.0171C4.32645 55.1162 3.77442 55.1675 3.14697 55.1675L3.14354 55.1607ZM2.65323 54.5829C2.82467 54.6069 2.97211 54.6171 3.1024 54.6239C3.22926 54.6274 3.38012 54.6308 3.55156 54.6308C3.94243 54.6308 4.3093 54.5727 4.65903 54.4564C5.00533 54.3402 5.31049 54.1727 5.56764 53.9505C5.8248 53.7282 6.03052 53.4616 6.18138 53.1436C6.33225 52.8257 6.40768 52.4667 6.40768 52.0633C6.40768 51.6291 6.33911 51.2599 6.19853 50.959C6.05795 50.6548 5.86594 50.4086 5.61222 50.2172C5.36192 50.0291 5.06019 49.889 4.71046 49.8035C4.36074 49.718 3.97329 49.677 3.55156 49.677C3.30469 49.677 3.11954 49.718 2.99611 49.7932C2.87267 49.8719 2.78353 49.9813 2.73209 50.1249C2.68066 50.2685 2.65323 50.4394 2.65323 50.6377V54.5829Z" fill="#232120"/>
<path d="M13.6593 54.4804C13.505 54.4907 13.3507 54.4941 13.1965 54.4907C13.0387 54.4907 12.881 54.4804 12.7267 54.4667V57.1436C12.7267 57.3966 12.7267 57.6086 12.7164 57.7898C12.7096 57.9675 12.6959 58.118 12.6787 58.2342L13.6765 58.1795V58.7778H10.5735V58.3265C10.8341 58.3197 11.0295 58.2718 11.1598 58.1863C11.2901 58.1009 11.3827 57.9846 11.4375 57.8376C11.4924 57.6906 11.5198 57.5129 11.5198 57.3111C11.5198 57.1094 11.5232 56.8838 11.5232 56.6445V50.6993C11.5232 50.5112 11.5232 50.3335 11.5335 50.1659C11.5404 49.9984 11.5541 49.8446 11.5712 49.7078L10.5769 49.7694V49.1574C11.0981 49.1472 11.6192 49.1403 12.1438 49.1369C12.6684 49.1335 13.1999 49.1369 13.7313 49.1437C14.3965 49.1574 14.9657 49.2224 15.4388 49.3352C15.912 49.448 16.2994 49.6121 16.6046 49.8207C16.9063 50.0326 17.1292 50.2856 17.2698 50.5865C17.4103 50.8873 17.4823 51.2258 17.4823 51.6052C17.4823 51.8753 17.4481 52.1488 17.3761 52.4292C17.3041 52.7095 17.1738 52.9727 16.9783 53.2257C16.7863 53.4753 16.5223 53.7009 16.1863 53.8958C15.8503 54.0941 15.4217 54.2445 14.8971 54.3505C15.0754 54.4804 15.24 54.6479 15.3805 54.8462C15.5246 55.0479 15.6823 55.2838 15.8537 55.5539L16.7966 57.0274C16.9132 57.212 17.0263 57.3829 17.1326 57.5402C17.2423 57.7009 17.3589 57.8376 17.4858 57.9539C17.6126 58.0701 17.7566 58.1624 17.9178 58.2308C18.0755 58.2992 18.2641 58.3299 18.4801 58.3299V58.7812H16.7417C16.608 58.665 16.4846 58.5487 16.3783 58.4325C16.272 58.3163 16.1692 58.1966 16.0731 58.0701C15.9771 57.9436 15.8846 57.8171 15.7954 57.6838C15.7063 57.5539 15.6103 57.4103 15.5108 57.2564L14.5885 55.7864C14.5268 55.6872 14.4617 55.5813 14.3931 55.4684C14.3245 55.3556 14.2525 55.2394 14.1771 55.1231C14.1016 55.0069 14.0193 54.8941 13.9336 54.7847C13.8479 54.6753 13.7588 54.5761 13.6628 54.4873L13.6593 54.4804ZM12.7233 53.9437C12.8673 53.9539 13.0044 53.9608 13.1382 53.9676C13.2719 53.9744 13.4193 53.9744 13.5805 53.9676C13.9576 53.9539 14.3005 53.9061 14.6125 53.824C14.9245 53.742 15.192 53.6121 15.4217 53.4377C15.648 53.2633 15.8229 53.0377 15.9497 52.7642C16.0766 52.4873 16.1383 52.1522 16.1383 51.7522C16.1383 51.0617 15.9394 50.542 15.5417 50.1933C15.144 49.8412 14.5234 49.6668 13.673 49.6668C13.4125 49.6668 13.217 49.7078 13.0867 49.783C12.9564 49.8617 12.8639 49.9711 12.809 50.1147C12.7542 50.2583 12.7267 50.4292 12.7233 50.6309C12.7233 50.8326 12.7233 51.0548 12.7233 51.301V53.9437Z" fill="#232120"/>
<path d="M22.9444 50.6924C22.9444 50.5043 22.9444 50.3266 22.9547 50.159C22.9615 49.9915 22.9718 49.8377 22.9924 49.6975L21.9946 49.7591V49.1539H25.0976V49.6018C24.837 49.612 24.6416 49.6599 24.5113 49.7454C24.381 49.8343 24.2884 49.9505 24.237 50.0975C24.1822 50.2445 24.1547 50.4189 24.1513 50.6206C24.1513 50.8223 24.1513 51.0479 24.1513 51.2941V57.1401C24.1513 57.3897 24.1479 57.6051 24.141 57.7863C24.1341 57.9641 24.1204 58.1145 24.1033 58.2307L25.0976 58.176V58.7743H21.9946V58.323C22.2552 58.3162 22.4506 58.2683 22.5809 58.1829C22.7112 58.0974 22.8038 57.9812 22.8552 57.8342C22.9101 57.6872 22.9375 57.5094 22.9375 57.3077C22.9375 57.1025 22.941 56.8803 22.941 56.6376V50.6889L22.9444 50.6924Z" fill="#232120"/>
<path d="M28.5503 53.9641C28.5503 53.5778 28.5914 53.1881 28.6772 52.7881C28.7629 52.3915 28.8932 52.0052 29.068 51.6291C29.2429 51.2565 29.4623 50.9043 29.7263 50.5795C29.9904 50.2548 30.2989 49.9676 30.6555 49.7214C31.0121 49.4753 31.4133 49.2804 31.859 49.1402C32.3082 49.0001 32.8019 48.9283 33.3471 48.9283C33.8922 48.9283 34.4168 49.0001 34.8763 49.1437C35.3357 49.2873 35.7472 49.4787 36.1106 49.7249C36.4741 49.9676 36.7895 50.2548 37.0569 50.583C37.3244 50.9112 37.5472 51.2633 37.7221 51.6359C37.9004 52.0086 38.0307 52.3949 38.1198 52.7949C38.209 53.1949 38.2501 53.5812 38.2501 53.9641C38.2501 54.347 38.2056 54.7333 38.1198 55.1299C38.0341 55.5265 37.9038 55.9094 37.729 56.2854C37.5575 56.6581 37.3381 57.0102 37.0741 57.3384C36.8101 57.6666 36.4981 57.9538 36.1415 58.1999C35.7849 58.4461 35.3837 58.641 34.938 58.7846C34.4923 58.9281 33.9985 58.9999 33.4534 58.9999C32.8705 58.9999 32.3425 58.9316 31.8762 58.7914C31.4064 58.6512 30.9915 58.4632 30.6281 58.2239C30.2647 57.9846 29.9526 57.7042 29.6886 57.3794C29.428 57.0547 29.212 56.706 29.044 56.3367C28.876 55.9675 28.7526 55.5778 28.6703 55.1744C28.588 54.7675 28.5503 54.3675 28.5503 53.9709V53.9641ZM29.9046 53.7111C29.9046 54.053 29.9355 54.4051 30.0006 54.7675C30.0624 55.1333 30.1584 55.4889 30.2852 55.8376C30.4121 56.1863 30.5732 56.5213 30.7687 56.8359C30.9641 57.1538 31.1938 57.4273 31.4613 57.6632C31.7287 57.8991 32.0304 58.0837 32.363 58.2239C32.6956 58.3641 33.0693 58.4324 33.4842 58.4324C33.8614 58.4324 34.2077 58.3743 34.5197 58.2615C34.8351 58.1487 35.1163 57.9914 35.3666 57.7897C35.6169 57.5914 35.8363 57.3555 36.0249 57.0854C36.2135 56.8154 36.3712 56.5248 36.4981 56.2137C36.6249 55.9025 36.7175 55.5709 36.7826 55.2154C36.8478 54.8632 36.8786 54.5316 36.8786 54.2205C36.8786 53.8889 36.8409 53.5231 36.7689 53.1197C36.6969 52.7163 36.5906 52.3402 36.4535 51.9881C36.3129 51.6359 36.1449 51.3077 35.9426 51C35.7403 50.6924 35.5072 50.4257 35.2432 50.2001C34.9791 49.9744 34.6843 49.7966 34.3585 49.6667C34.0328 49.5368 33.6797 49.4719 33.2991 49.4719C32.7333 49.4719 32.2362 49.5984 31.811 49.8479C31.3858 50.0975 31.0293 50.4257 30.7481 50.8291C30.4669 51.2325 30.2544 51.6872 30.1138 52.1898C29.9732 52.6923 29.9012 53.2017 29.9012 53.7111H29.9046Z" fill="#232120"/>
<path d="M44.4493 54.4804C44.295 54.4907 44.1407 54.4941 43.9864 54.4907C43.8287 54.4907 43.6709 54.4804 43.5132 54.4667V57.1436C43.5132 57.3966 43.5132 57.6086 43.5029 57.7898C43.4961 57.9675 43.4824 58.118 43.4652 58.2342L44.463 58.1795V58.7778H41.36V58.3265C41.6206 58.3197 41.816 58.2718 41.9463 58.1863C42.0766 58.1009 42.1692 57.9846 42.2206 57.8376C42.2755 57.6906 42.3029 57.5129 42.3063 57.3111C42.3063 57.1094 42.3063 56.8838 42.3063 56.6445V50.6993C42.3063 50.5112 42.3063 50.3335 42.3166 50.1659C42.3235 49.9984 42.3372 49.8446 42.3543 49.7078L41.36 49.7694V49.1574C41.8812 49.1472 42.4023 49.1403 42.9269 49.1369C43.4515 49.1335 43.9795 49.1369 44.5144 49.1437C45.1796 49.1574 45.7453 49.2224 46.2219 49.3352C46.6951 49.448 47.0825 49.6121 47.3877 49.8207C47.6894 50.0326 47.9123 50.2856 48.0528 50.5865C48.1934 50.8873 48.2654 51.2258 48.2654 51.6052C48.2654 51.8753 48.2311 52.1488 48.1557 52.4292C48.0837 52.7095 47.9534 52.9727 47.758 53.2257C47.566 53.4753 47.302 53.7009 46.9659 53.8958C46.6334 54.0941 46.2013 54.2445 45.6767 54.3505C45.855 54.4804 46.0196 54.6479 46.1602 54.8462C46.3042 55.0479 46.4619 55.2838 46.6334 55.5539L47.5763 57.0274C47.6928 57.212 47.806 57.3829 47.9123 57.5402C48.0186 57.7009 48.1386 57.8376 48.2654 57.9539C48.3923 58.0701 48.5363 58.1624 48.6974 58.2308C48.8552 58.2992 49.0437 58.3299 49.2598 58.3299V58.7812H47.5214C47.3877 58.665 47.2677 58.5487 47.1579 58.4325C47.0482 58.3163 46.9488 58.1966 46.8528 58.0701C46.7568 57.9436 46.6642 57.8171 46.5751 57.6838C46.4859 57.5539 46.3899 57.4103 46.2905 57.2564L45.3682 55.7864C45.3064 55.6872 45.2413 55.5813 45.1727 55.4684C45.1041 55.3556 45.0321 55.2394 44.9567 55.1231C44.8813 55.0069 44.799 54.8941 44.7133 54.7847C44.6276 54.6753 44.5384 54.5761 44.4458 54.4873L44.4493 54.4804ZM43.5132 53.9437C43.6572 53.9539 43.7944 53.9608 43.9281 53.9676C44.0618 53.9744 44.2092 53.9744 44.3704 53.9676C44.7476 53.9539 45.0904 53.9061 45.4024 53.824C45.7145 53.742 45.9819 53.6121 46.2082 53.4377C46.4345 53.2633 46.6128 53.0377 46.7362 52.7642C46.8631 52.4873 46.9248 52.1522 46.9248 51.7522C46.9248 51.0617 46.7259 50.542 46.3282 50.1933C45.9305 49.8412 45.3099 49.6668 44.4595 49.6668C44.199 49.6668 44.0035 49.7078 43.8732 49.783C43.7429 49.8617 43.6504 49.9711 43.5989 50.1147C43.5441 50.2583 43.5166 50.4292 43.5132 50.6309C43.5132 50.8326 43.5132 51.0548 43.5132 51.301V53.9437Z" fill="#232120"/>
<path d="M53.7343 50.6924C53.7343 50.5043 53.7343 50.3266 53.7446 50.159C53.7514 49.9915 53.7652 49.8377 53.7823 49.6975L52.7845 49.7591V49.1539H55.8875V49.6018C55.6269 49.612 55.4315 49.6599 55.3012 49.7454C55.1709 49.8343 55.0784 49.9505 55.0235 50.0975C54.9686 50.2445 54.9412 50.4189 54.9412 50.6206C54.9412 50.8223 54.9412 51.0479 54.9412 51.2941V57.1401C54.9412 57.3897 54.9412 57.6051 54.9309 57.7863C54.9241 57.9641 54.9103 58.1145 54.8932 58.2307L55.891 58.176V58.7743H52.788V58.323C53.0486 58.3162 53.244 58.2683 53.3743 58.1829C53.5046 58.0974 53.5971 57.9812 53.6486 57.8342C53.7034 57.6872 53.7309 57.5094 53.7343 57.3077C53.7343 57.1025 53.7343 56.8803 53.7343 56.6376V50.6889V50.6924Z" fill="#232120"/>
<path d="M67.3908 52.0599C67.3805 51.653 67.3496 51.2975 67.2948 50.9966C67.2399 50.6958 67.1473 50.4428 67.0136 50.2445C66.8799 50.0462 66.6982 49.8958 66.4684 49.8001C66.2387 49.7009 65.9473 49.6531 65.5941 49.6531L64.4284 49.6599L64.4078 57.1504C64.4078 57.6427 64.3941 58.0051 64.3666 58.2376L65.5118 58.1829V58.7812H62.2751V58.3299C62.5323 58.323 62.7243 58.2718 62.8546 58.1829C62.9849 58.094 63.0774 57.9743 63.1289 57.8239C63.1837 57.6735 63.2112 57.4991 63.2112 57.2974V56.6444L63.2317 49.6736L61.8054 49.6804C61.514 49.6804 61.2671 49.7283 61.0682 49.824C60.8694 49.9197 60.7048 50.0667 60.5813 50.265C60.4545 50.4633 60.3653 50.7095 60.307 51.0069C60.2522 51.3043 60.2213 51.6565 60.2213 52.0633H59.7104L59.7927 49.1573H67.8296L67.9119 52.0633H67.3942L67.3908 52.0599Z" fill="#232120"/>
<path d="M74.9067 55.0684L72.5169 51.2872C72.2803 50.9214 72.1054 50.6137 71.9923 50.3642C71.8791 50.1146 71.8071 49.9026 71.7694 49.7283L70.9156 49.7625V49.1505H74.4678V49.6052C74.1489 49.6052 73.9055 49.6428 73.7409 49.7146C73.5763 49.7898 73.4666 49.8924 73.422 50.0223C73.374 50.1556 73.3809 50.3129 73.4426 50.4941C73.5043 50.6787 73.6038 50.877 73.7409 51.0992C73.9123 51.3727 74.0735 51.6291 74.2244 51.8753C74.3787 52.118 74.5295 52.3607 74.6838 52.5966C74.8347 52.8325 74.9958 53.0752 75.157 53.3214C75.3216 53.5676 75.4998 53.8274 75.6987 54.1009H75.7261C76.7548 52.1488 77.3651 50.9966 77.5639 50.6377C77.7594 50.2787 77.8897 50.0531 77.9548 49.9608C78.0165 49.8685 78.0817 49.783 78.1502 49.7112L77.0599 49.7591V49.1471H79.8749V49.6018C79.6452 49.6155 79.4429 49.6599 79.2611 49.7351C79.0829 49.8103 78.9114 49.9232 78.7571 50.0667C78.5994 50.2103 78.4485 50.3949 78.3011 50.6103C78.1537 50.8291 77.4234 52.1727 76.1033 54.6513C76.0999 55.0957 76.0964 55.6188 76.093 56.2273C76.093 56.8359 76.093 57.1367 76.0964 57.1367C76.0964 57.629 76.0827 57.9914 76.0553 58.2239L77.2005 58.1692V58.7675H73.9638V58.3162C74.2209 58.3094 74.4129 58.2581 74.5432 58.1692C74.6735 58.0803 74.7661 57.9607 74.8175 57.8102C74.8724 57.6598 74.8998 57.4854 74.8998 57.2837V56.6308L74.9067 55.0581V55.0684Z" fill="#232120"/>
<path d="M93.6068 55.1607H93.3942C93.2982 55.1607 93.2057 55.1607 93.1131 55.1539V57.1436C93.1131 57.3966 93.1131 57.6085 93.1028 57.7897C93.0959 57.9675 93.0822 58.1179 93.0651 58.2342L94.3371 58.1658V58.7777H90.9564V58.3265C91.217 58.3196 91.4124 58.2718 91.5427 58.1863C91.673 58.1008 91.7656 57.9846 91.817 57.8376C91.8719 57.6906 91.8993 57.5128 91.9027 57.3111C91.9027 57.1094 91.9062 56.8837 91.9062 56.6444V50.6992C91.9062 50.5112 91.9062 50.3334 91.9165 50.1659C91.9233 49.9984 91.937 49.8445 91.9542 49.7078L90.9564 49.7693V49.1574C91.4399 49.1471 91.9405 49.1437 92.4513 49.1403C92.9622 49.1403 93.4902 49.1403 94.032 49.1403C95.3692 49.1403 96.3841 49.3659 97.0801 49.8103C97.8241 50.2992 98.1979 51.0103 98.1979 51.9505C98.1979 52.1419 98.1773 52.3539 98.1327 52.5898C98.0916 52.8223 98.0024 53.0616 97.8721 53.3111C97.7418 53.5607 97.5636 53.7966 97.3373 54.0222C97.111 54.2479 96.8264 54.4462 96.4835 54.6137C96.1406 54.7812 95.7292 54.9145 95.256 55.0171C94.7794 55.1162 94.2274 55.1675 93.6 55.1675L93.6068 55.1607ZM93.1165 54.5829C93.2879 54.6069 93.4354 54.6171 93.5657 54.6239C93.6925 54.6274 93.8434 54.6308 94.0148 54.6308C94.4057 54.6308 94.7726 54.5727 95.1223 54.4564C95.4686 54.3402 95.7738 54.1727 96.0309 53.9505C96.2881 53.7282 96.4938 53.4616 96.6447 53.1436C96.7955 52.8257 96.871 52.4667 96.871 52.0633C96.871 51.6291 96.8024 51.2599 96.6618 50.959C96.5212 50.6548 96.3258 50.4086 96.0755 50.2172C95.8252 50.0291 95.5235 49.889 95.1737 49.8035C94.824 49.718 94.4366 49.677 94.0148 49.677C93.768 49.677 93.5828 49.7146 93.4594 49.7932C93.3359 49.8719 93.2468 49.9813 93.1954 50.1249C93.1439 50.2685 93.1165 50.4394 93.1165 50.6377V54.5829Z" fill="#232120"/>
<path d="M101.335 57.2837C101.297 57.3931 101.267 57.4889 101.239 57.5743C101.212 57.6598 101.184 57.7384 101.157 57.8102C101.129 57.882 101.102 57.9504 101.075 58.0188C101.047 58.0871 101.02 58.1589 100.989 58.2342L102.065 58.1795V58.7777H99.4871V58.3265C99.6928 58.3265 99.8608 58.2854 99.9911 58.2034C100.121 58.1213 100.231 58.0017 100.32 57.8513C100.409 57.6974 100.492 57.5196 100.567 57.3077C100.643 57.0991 100.725 56.8666 100.821 56.6102L103.66 48.8941H103.989L107.065 56.7231C107.106 56.8188 107.147 56.9316 107.188 57.0615C107.229 57.1949 107.27 57.3282 107.308 57.4683C107.346 57.6085 107.377 57.7419 107.394 57.8786C107.414 58.0119 107.421 58.1316 107.418 58.2342L108.361 58.1795V58.7777H105.203V58.3265C105.456 58.323 105.645 58.2752 105.768 58.1863C105.888 58.0974 105.967 57.988 105.998 57.8581C106.029 57.7282 106.029 57.588 105.998 57.441C105.967 57.294 105.926 57.1538 105.878 57.0239L105.395 55.7316L101.808 55.8137C101.709 56.0974 101.623 56.3573 101.544 56.5897C101.469 56.8256 101.397 57.0581 101.328 57.2872L101.335 57.2837ZM103.005 52.453C102.792 53.0445 102.607 53.5641 102.449 54.012C102.292 54.4598 102.148 54.8633 102.021 55.2154H105.213L104.229 52.5829L103.608 50.8907H103.581L103.001 52.4462L103.005 52.453Z" fill="#232120"/>
<path d="M111.518 58.8838H110.805L110.723 55.9573H111.254C111.282 56.3641 111.368 56.7197 111.518 57.0274C111.666 57.3351 111.861 57.5881 112.101 57.7966C112.341 58.0017 112.622 58.159 112.938 58.2616C113.257 58.3675 113.596 58.4188 113.96 58.4188C114.23 58.4188 114.484 58.3812 114.724 58.3094C114.964 58.2376 115.177 58.1248 115.359 57.9812C115.54 57.8376 115.684 57.6564 115.791 57.441C115.897 57.2257 115.948 56.9795 115.948 56.7026C115.948 56.3676 115.873 56.0804 115.725 55.8377C115.578 55.5949 115.383 55.383 115.136 55.1983C114.892 55.0137 114.611 54.8462 114.302 54.6958C113.99 54.5454 113.672 54.3949 113.349 54.2445C113.027 54.0941 112.708 53.9368 112.396 53.7693C112.084 53.6018 111.806 53.4069 111.563 53.1847C111.32 52.9625 111.121 52.7061 110.973 52.4086C110.826 52.1112 110.75 51.7625 110.75 51.3557C110.75 51.1984 110.767 51.0309 110.805 50.8531C110.839 50.6753 110.901 50.4941 110.983 50.3164C111.066 50.1386 111.175 49.9642 111.313 49.7967C111.45 49.6292 111.621 49.4822 111.827 49.3523C112.033 49.2224 112.28 49.1232 112.561 49.048C112.842 48.9728 113.171 48.9352 113.545 48.9352C113.723 48.9352 113.915 48.9454 114.117 48.9694C114.32 48.9933 114.525 49.0309 114.735 49.0822C114.944 49.1369 115.149 49.2087 115.359 49.301C115.564 49.3933 115.763 49.5095 115.952 49.6463L115.897 49.0548H116.596V52.0702H116.099C116.079 51.7386 116.013 51.4172 115.907 51.1027C115.801 50.7881 115.647 50.5146 115.448 50.2753C115.245 50.036 114.995 49.8411 114.7 49.6976C114.405 49.5506 114.056 49.4788 113.651 49.4788C113.363 49.4788 113.109 49.5232 112.89 49.6087C112.67 49.6976 112.485 49.8138 112.338 49.9608C112.19 50.1078 112.077 50.2788 112.002 50.4736C111.926 50.6685 111.889 50.8736 111.889 51.089C111.889 51.4035 111.964 51.6736 112.115 51.9061C112.266 52.1386 112.465 52.3437 112.712 52.5215C112.958 52.6992 113.24 52.8633 113.552 53.0138C113.867 53.1608 114.186 53.3112 114.515 53.4582C114.844 53.6086 115.163 53.7693 115.479 53.9402C115.794 54.1112 116.072 54.3129 116.319 54.5385C116.565 54.7642 116.764 55.0274 116.915 55.3283C117.066 55.6291 117.141 55.9812 117.141 56.3881C117.141 56.7676 117.069 57.1197 116.925 57.4376C116.781 57.759 116.572 58.0325 116.298 58.2616C116.024 58.4906 115.688 58.6718 115.287 58.8017C114.885 58.9316 114.429 58.9966 113.915 58.9966C113.709 58.9966 113.497 58.9829 113.277 58.9521C113.061 58.9214 112.845 58.8803 112.633 58.8222C112.42 58.7641 112.214 58.6889 112.016 58.6C111.817 58.5111 111.632 58.4086 111.46 58.2923L111.529 58.8838H111.518Z" fill="#232120"/>
<path d="M121.054 58.8838H120.34L120.258 55.9573H120.79C120.817 56.3641 120.903 56.7197 121.054 57.0274C121.201 57.3351 121.397 57.5881 121.637 57.7966C121.877 58.0017 122.154 58.159 122.473 58.2616C122.792 58.3675 123.131 58.4188 123.495 58.4188C123.766 58.4188 124.019 58.3812 124.259 58.3094C124.5 58.2376 124.712 58.1248 124.89 57.9812C125.072 57.8376 125.216 57.6564 125.322 57.441C125.429 57.2257 125.48 56.9795 125.48 56.7026C125.48 56.3676 125.405 56.0804 125.257 55.8377C125.11 55.5949 124.914 55.383 124.668 55.1983C124.424 55.0137 124.143 54.8462 123.834 54.6958C123.522 54.5454 123.203 54.3949 122.881 54.2445C122.559 54.0941 122.24 53.9368 121.928 53.7693C121.616 53.6018 121.338 53.4069 121.095 53.1847C120.851 52.9625 120.652 52.7061 120.505 52.4086C120.358 52.1112 120.282 51.7625 120.282 51.3557C120.282 51.1984 120.299 51.0309 120.337 50.8531C120.371 50.6753 120.433 50.4941 120.515 50.3164C120.598 50.1386 120.707 49.9642 120.844 49.7967C120.982 49.6292 121.153 49.4822 121.359 49.3523C121.565 49.2224 121.808 49.1232 122.093 49.048C122.374 48.9728 122.703 48.9352 123.077 48.9352C123.255 48.9352 123.447 48.9454 123.649 48.9694C123.851 48.9933 124.057 49.0309 124.266 49.0822C124.476 49.1369 124.681 49.2087 124.89 49.301C125.096 49.3933 125.295 49.5095 125.484 49.6463L125.429 49.0548H126.128V52.0702H125.631C125.61 51.7386 125.545 51.4172 125.439 51.1027C125.333 50.7916 125.182 50.5146 124.98 50.2753C124.777 50.036 124.53 49.8411 124.232 49.6976C123.937 49.5506 123.587 49.4788 123.183 49.4788C122.895 49.4788 122.641 49.5232 122.422 49.6087C122.202 49.6976 122.017 49.8138 121.87 49.9608C121.722 50.1078 121.609 50.2788 121.534 50.4736C121.458 50.6685 121.421 50.8736 121.421 51.089C121.421 51.4035 121.496 51.6736 121.647 51.9061C121.798 52.1386 121.997 52.3437 122.243 52.5215C122.49 52.6992 122.771 52.8633 123.083 53.0138C123.399 53.1608 123.718 53.3112 124.047 53.4582C124.376 53.6086 124.695 53.7693 125.01 53.9402C125.326 54.1112 125.604 54.3129 125.85 54.5385C126.097 54.7642 126.296 55.0274 126.447 55.3283C126.598 55.6291 126.673 55.9812 126.673 56.3881C126.673 56.7676 126.601 57.1197 126.457 57.4376C126.313 57.759 126.104 58.0325 125.83 58.2616C125.556 58.4906 125.22 58.6718 124.815 58.8017C124.414 58.9316 123.958 58.9966 123.443 58.9966C123.238 58.9966 123.025 58.9829 122.809 58.9521C122.593 58.9214 122.377 58.8803 122.165 58.8222C121.952 58.7641 121.746 58.6889 121.544 58.6C121.345 58.5111 121.16 58.4086 120.988 58.2923L121.057 58.8838H121.054Z" fill="#232120"/>
<path d="M132.241 49.0616L132.265 49.9915H131.995C131.995 49.7727 131.95 49.6086 131.861 49.4992C131.772 49.3898 131.648 49.3351 131.487 49.3351H131.292V51.2598C131.292 51.2975 131.292 51.3351 131.292 51.3692C131.292 51.4069 131.292 51.441 131.292 51.4718C131.292 51.506 131.292 51.5333 131.288 51.5607C131.288 51.588 131.285 51.6086 131.281 51.6257L131.611 51.612V51.9299H130.411V51.6598C130.455 51.6598 130.496 51.653 130.534 51.6462C130.572 51.6393 130.603 51.6257 130.627 51.6017C130.651 51.5778 130.671 51.5436 130.685 51.4992C130.699 51.4513 130.705 51.3863 130.705 51.3043V49.3385H130.513C130.356 49.3385 130.232 49.3898 130.143 49.4958C130.054 49.6017 130.006 49.7658 130.006 49.9881H129.735L129.759 49.0582H132.252L132.241 49.0616Z" fill="#232120"/>
<path d="M135.591 49.7282L134.748 51.9744H134.364L133.812 50.624C133.795 50.5864 133.774 50.5351 133.75 50.4701C133.726 50.4052 133.699 50.3334 133.671 50.2513C133.644 50.1693 133.616 50.0804 133.592 49.9881C133.565 49.8923 133.541 49.7966 133.52 49.6975H133.517C133.52 49.8513 133.524 49.9949 133.527 50.1317C133.527 50.2684 133.527 50.3949 133.527 50.5214L133.52 51.2633C133.52 51.3009 133.52 51.3385 133.52 51.3727C133.52 51.4103 133.52 51.4445 133.517 51.4752C133.517 51.5094 133.514 51.5368 133.51 51.5641C133.51 51.5915 133.507 51.612 133.503 51.6291L133.815 51.6154V51.9333H132.876V51.6633C132.92 51.6633 132.962 51.6564 132.999 51.6496C133.037 51.6427 133.064 51.6291 133.092 51.6051C133.116 51.5812 133.136 51.547 133.15 51.5026C133.164 51.4547 133.171 51.3898 133.171 51.3077L133.195 49.7351C133.195 49.6975 133.195 49.6599 133.195 49.6257C133.195 49.5881 133.195 49.5539 133.198 49.5231C133.202 49.4923 133.198 49.4616 133.202 49.4342C133.202 49.4069 133.205 49.3864 133.208 49.3693L132.896 49.3829V49.065H133.805L134.429 50.6547C134.446 50.7026 134.467 50.7573 134.491 50.8154C134.511 50.8769 134.535 50.9351 134.556 50.9966C134.577 51.0581 134.597 51.1128 134.614 51.1675C134.631 51.2222 134.645 51.2667 134.659 51.3009H134.662C134.697 51.2051 134.731 51.1128 134.758 51.024C134.786 50.9351 134.82 50.8462 134.854 50.7573L135.489 49.0616H136.438V49.3317C136.39 49.3317 136.349 49.3385 136.311 49.3453C136.274 49.3522 136.243 49.3659 136.215 49.3898C136.188 49.4137 136.171 49.4479 136.157 49.4923C136.143 49.5402 136.14 49.6052 136.143 49.6872L136.205 51.2598C136.205 51.2975 136.205 51.3351 136.205 51.3692C136.205 51.4069 136.205 51.441 136.205 51.4718C136.205 51.506 136.205 51.5333 136.198 51.5607C136.198 51.588 136.191 51.6086 136.191 51.6257L136.5 51.612V51.9299H135.358V51.6598C135.403 51.6598 135.444 51.653 135.482 51.6462C135.519 51.6393 135.55 51.6257 135.578 51.6017C135.605 51.5778 135.622 51.5436 135.636 51.4992C135.65 51.4513 135.653 51.3863 135.65 51.3043L135.615 50.4359C135.615 50.412 135.615 50.3744 135.609 50.3197C135.602 50.265 135.602 50.2069 135.598 50.1385C135.598 50.0701 135.591 50.0017 135.588 49.93C135.585 49.8582 135.581 49.7898 135.578 49.7282H135.574H135.591Z" fill="#232120"/>
</svg>
