<svg width="86" height="39" viewBox="0 0 86 39" fill="none" xmlns="http://www.w3.org/2000/svg">
<path d="M79.856 33.0859V32.0852H79.4067V31.9297H80.4958V32.0852H80.0435V33.0859H79.8575H79.856ZM80.7235 33.0859V31.9297H80.9213L81.3588 32.4365L81.7933 31.9297H81.9867V33.0859H81.8007V32.1941L81.3588 32.688L80.9094 32.1941V33.0859H80.7235Z" fill="white"/>
<path d="M4.01331 38.2891V31.9297H6.77422C7.42823 31.9297 7.94426 32.1144 8.32093 32.4824C8.69761 32.8504 8.88664 33.3488 8.88664 33.976C8.88664 34.6032 8.69761 35.1015 8.32093 35.4695C7.94426 35.8375 7.42823 36.0223 6.77422 36.0223H4.70871V38.2891H4.01469H4.01331ZM4.70733 35.3492H6.7273C7.20884 35.3492 7.5731 35.2275 7.82008 34.9841C8.06706 34.7406 8.19124 34.4041 8.19124 33.976C8.19124 33.5478 8.06706 33.2199 7.82008 32.9765C7.5731 32.733 7.20884 32.6113 6.7273 32.6113H4.70733V35.3492Z" fill="white"/>
<path d="M10.6067 38.2891V31.9297H13.5592C14.1933 31.9297 14.6969 32.1087 15.073 32.4681C15.449 32.8275 15.6363 33.3101 15.6363 33.9187C15.6363 34.3282 15.56 34.6547 15.4087 34.8982C15.2561 35.1416 15.066 35.3249 14.8357 35.4509C14.6054 35.5755 14.3764 35.6671 14.1461 35.7244L15.7667 38.2891H14.9384L13.4482 35.849H11.306V38.2891H10.6067ZM11.306 35.1674H13.4385C13.6619 35.1674 13.8894 35.1316 14.1184 35.0614C14.3473 34.9912 14.5416 34.8652 14.7011 34.6819C14.8593 34.5001 14.9384 34.2452 14.9384 33.9187C14.9384 33.5149 14.8052 33.197 14.5374 32.9636C14.2696 32.7302 13.9158 32.6127 13.476 32.6127H11.306V35.1674Z" fill="white"/>
<path d="M18.3467 31.9297H17.4867V38.2891H18.3467V31.9297Z" fill="white"/>
<path d="M23.22 38.2891C22.7503 38.2891 22.3226 38.208 21.934 38.0458C21.5455 37.8836 21.2128 37.6556 20.9347 37.3606C20.6565 37.067 20.4426 36.7272 20.2917 36.3427C20.1421 35.9581 20.0667 35.547 20.0667 35.1094C20.0667 34.6717 20.1421 34.2522 20.2917 33.8719C20.4412 33.4902 20.6565 33.1532 20.9347 32.8581C21.2128 32.5645 21.5455 32.3366 21.934 32.173C22.3212 32.0108 22.7503 31.9297 23.22 31.9297C23.6896 31.9297 24.1173 32.0108 24.5059 32.173C24.8931 32.3352 25.2272 32.5631 25.5053 32.8581C25.7835 33.1518 25.9973 33.4902 26.1483 33.8719C26.2978 34.2536 26.3733 34.6661 26.3733 35.1094C26.3733 35.5526 26.2978 35.9581 26.1483 36.3427C25.9987 36.7272 25.7835 37.067 25.5053 37.3606C25.2272 37.6542 24.8931 37.8822 24.5059 38.0458C24.1173 38.208 23.6896 38.2891 23.22 38.2891ZM23.22 37.6053C23.7274 37.6053 24.1635 37.4948 24.5297 37.2725C24.8959 37.0502 25.1768 36.751 25.3739 36.372C25.571 35.9931 25.6688 35.5736 25.6688 35.1108C25.6688 34.6479 25.571 34.2201 25.3739 33.8439C25.1768 33.4692 24.8959 33.17 24.5297 32.9476C24.1635 32.7253 23.7274 32.6148 23.22 32.6148C22.7126 32.6148 22.2849 32.7267 21.9159 32.9476C21.5469 33.17 21.2631 33.4678 21.066 33.8439C20.869 34.2187 20.7711 34.641 20.7711 35.1108C20.7711 35.5806 20.869 35.9945 21.066 36.372C21.2631 36.7496 21.5455 37.0502 21.9159 37.2725C22.2849 37.4948 22.7196 37.6053 23.22 37.6053Z" fill="white"/>
<path d="M28.38 38.2891V31.9297H31.3325C31.9666 31.9297 32.4703 32.1087 32.8463 32.4681C33.2223 32.8275 33.4096 33.3101 33.4096 33.9187C33.4096 34.3282 33.3333 34.6547 33.182 34.8982C33.0294 35.1416 32.8393 35.3249 32.609 35.4509C32.3787 35.5755 32.1498 35.6671 31.9194 35.7244L33.54 38.2891H32.7117L31.2215 35.849H29.0793V38.2891H28.38ZM29.0793 35.1674H31.2118C31.4352 35.1674 31.6628 35.1316 31.8917 35.0614C32.1206 34.9912 32.3149 34.8652 32.4744 34.6819C32.6326 34.5001 32.7117 34.2452 32.7117 33.9187C32.7117 33.5149 32.5785 33.197 32.3107 32.9636C32.0429 32.7302 31.6891 32.6127 31.2493 32.6127H29.0793V35.1674Z" fill="white"/>
<path d="M36.12 31.9297H35.26V38.2891H36.12V31.9297Z" fill="white"/>
<path d="M39.9366 38.2891V32.6127H37.84V31.9297H42.7133V32.6127H40.618V38.2891H39.9366Z" fill="white"/>
<path d="M46.2296 38.2891V35.7717L43.5733 31.9297H44.4416L46.5826 35.0227L48.7235 31.9297H49.5933L46.9456 35.7717V38.2891H46.2296Z" fill="white"/>
<path d="M53.8933 38.2891V31.9297H56.6542C57.3082 31.9297 57.8243 32.1144 58.2009 32.4824C58.5776 32.8504 58.7666 33.3488 58.7666 33.976C58.7666 34.6032 58.5776 35.1015 58.2009 35.4695C57.8243 35.8375 57.3082 36.0223 56.6542 36.0223H54.5887V38.2891H53.8947H53.8933ZM54.5887 35.3492H56.6087C57.0902 35.3492 57.4545 35.2275 57.7015 34.9841C57.9484 34.7406 58.0726 34.4041 58.0726 33.976C58.0726 33.5478 57.9484 33.2199 57.7015 32.9765C57.4545 32.733 57.0902 32.6113 56.6087 32.6113H54.5887V35.3492Z" fill="white"/>
<path d="M59.34 38.2891L62.0416 31.9297H62.945L65.6466 38.2891H64.8492L64.0703 36.4447H60.9177L60.1389 38.2891H59.3414H59.34ZM61.1955 35.7817H63.7911L62.494 32.6786L61.1969 35.7817H61.1955Z" fill="white"/>
<path d="M69.4856 38.2877C68.8697 38.2877 68.3716 38.2051 67.9886 38.0387C67.6056 37.8737 67.318 37.6429 67.1272 37.3492C66.935 37.0555 66.8242 36.724 66.7933 36.3548H67.5285C67.5467 36.6555 67.6477 36.8975 67.8301 37.0821C68.0125 37.2667 68.2524 37.4024 68.5512 37.4905C68.85 37.5786 69.1769 37.6219 69.5361 37.6219C70.0636 37.6219 70.4817 37.5296 70.7889 37.345C71.0961 37.1604 71.2505 36.8863 71.2505 36.524C71.2505 36.3045 71.1733 36.1282 71.019 35.994C70.8646 35.8597 70.6612 35.7478 70.4073 35.6611C70.1534 35.573 69.8756 35.4933 69.574 35.422C69.2723 35.3506 68.9693 35.2737 68.6649 35.1926C68.3604 35.1115 68.0812 35.008 67.8259 34.8835C67.572 34.759 67.3671 34.5968 67.2142 34.401C67.0599 34.2038 66.9841 33.952 66.9841 33.6458C66.9841 33.1395 67.1805 32.7269 67.5734 32.408C67.9662 32.0891 68.5512 31.9297 69.3298 31.9297C69.8826 31.9297 70.3371 32.0122 70.6949 32.1786C71.0526 32.3451 71.322 32.5618 71.5002 32.8304C71.6798 33.0989 71.778 33.3898 71.7962 33.7031H71.0709C71.033 33.3898 70.8759 33.1255 70.5995 32.9101C70.3231 32.6947 69.8994 32.587 69.3284 32.587C68.9763 32.587 68.6915 32.622 68.4712 32.6905C68.251 32.759 68.084 32.8486 67.9676 32.9576C67.8511 33.0667 67.7726 33.1814 67.7319 33.3003C67.6912 33.4192 67.6702 33.5311 67.6702 33.6374C67.6702 33.8444 67.7473 34.0108 67.9003 34.1395C68.0546 34.2681 68.258 34.3744 68.5119 34.4583C68.7659 34.5422 69.0464 34.6192 69.3551 34.6877C69.6623 34.7562 69.9682 34.8332 70.274 34.9171C70.5785 35.001 70.8576 35.1073 71.1116 35.2359C71.3655 35.3646 71.5703 35.5283 71.7232 35.7282C71.8776 35.9282 71.9533 36.1856 71.9533 36.4975C71.9533 37.0723 71.7331 37.5156 71.294 37.8247C70.8548 38.1338 70.2516 38.2891 69.4856 38.2891" fill="white"/>
<path d="M75.7929 38.2877C75.1769 38.2877 74.6787 38.2051 74.2956 38.0387C73.9125 37.8737 73.6248 37.6429 73.434 37.3492C73.2417 37.0555 73.1308 36.724 73.1 36.3548H73.8353C73.8536 36.6555 73.9546 36.8975 74.137 37.0821C74.3195 37.2667 74.5594 37.4024 74.8583 37.4905C75.1572 37.5786 75.4842 37.6219 75.8435 37.6219C76.3711 37.6219 76.7893 37.5296 77.0966 37.345C77.4039 37.1604 77.5583 36.8863 77.5583 36.524C77.5583 36.3045 77.4811 36.1282 77.3268 35.994C77.1724 35.8597 76.9689 35.7478 76.7149 35.6611C76.4609 35.573 76.1831 35.4933 75.8814 35.422C75.5796 35.3506 75.2765 35.2737 74.972 35.1926C74.6675 35.1115 74.3882 35.008 74.1328 34.8835C73.8788 34.759 73.6739 34.5968 73.521 34.401C73.3666 34.2038 73.2894 33.952 73.2894 33.6458C73.2894 33.1395 73.4859 32.7269 73.8788 32.408C74.2717 32.0891 74.8569 31.9297 75.6358 31.9297C76.1887 31.9297 76.6434 32.0122 77.0012 32.1786C77.359 32.3451 77.6285 32.5618 77.8067 32.8304C77.9863 33.0989 78.0846 33.3898 78.1028 33.7031H77.3773C77.3394 33.3898 77.1822 33.1255 76.9058 32.9101C76.6293 32.6947 76.2055 32.587 75.6344 32.587C75.2821 32.587 74.9973 32.622 74.7769 32.6905C74.5566 32.759 74.3896 32.8486 74.2731 32.9576C74.1567 33.0667 74.0781 33.1814 74.0374 33.3003C73.9967 33.4192 73.9756 33.5311 73.9756 33.6374C73.9756 33.8444 74.0528 34.0108 74.2058 34.1395C74.3602 34.2681 74.5636 34.3744 74.8176 34.4583C75.0716 34.5422 75.3523 34.6192 75.661 34.6877C75.9684 34.7562 76.2743 34.8332 76.5802 34.9171C76.8847 35.001 77.164 35.1073 77.418 35.2359C77.672 35.3646 77.8769 35.5283 78.0298 35.7282C78.1842 35.9282 78.26 36.1856 78.26 36.4975C78.26 37.0723 78.0397 37.5156 77.6004 37.8247C77.1612 38.1338 76.5577 38.2891 75.7915 38.2891" fill="white"/>
<path d="M44.9286 13.6817C52.0098 13.6817 52.46 8.92367 52.46 7.1865C52.46 5.44932 52.0098 0.710938 44.9286 0.710938H41.0885V24.4911H39.4644V0.710938L33.6188 2.41312L33.9218 3.45038L36.4841 2.70428V24.4897H32.9667V25.5703H45.6915V24.4897H42.1713V13.6803H44.9286V13.6817ZM44.3367 1.7916C48.3984 1.7916 48.9397 5.55011 48.9397 7.1879C48.9397 8.82569 48.3984 12.601 44.3367 12.601H42.1713V1.7916H44.3367Z" fill="white"/>
</svg>
